<?xml version="1.0" encoding="utf-8"?>
<!-- Generator: Adobe Illustrator 23.0.1, SVG Export Plug-In . SVG Version: 6.00 Build 0)  -->
<svg version="1.1" id="Layer_1" xmlns="http://www.w3.org/2000/svg" xmlns:xlink="http://www.w3.org/1999/xlink" x="0px" y="0px"
	 viewBox="0 0 60 30" style="enable-background:new 0 0 60 30;" xml:space="preserve">
<style type="text/css">
	.st0{fill:#FFFFFF;}
	.st1{font-family:'JetBrainsMono-ExtraBoldItalic';}
	.st2{font-size:26.5488px;}
	.st3{fill:#FFFFFF;stroke:#050505;stroke-width:0.1;stroke-miterlimit:10;}
	.st4{clip-path:url(#SVGID_1_);}
	.st5{fill:none;stroke:#000000;stroke-width:0.1;stroke-miterlimit:10;}
	.st6{stroke:#000000;stroke-width:0.1;stroke-miterlimit:10;}
	.st7{font-size:26.5484px;}
</style>
<text transform="matrix(1.13 0 0 1 0 22.8311)" class="st0 st1 st2">4</text>
<ellipse class="st3" cx="29.34" cy="13.32" rx="10" ry="10"/>
<g>
	<defs>
		<circle id="SVGID_3_" cx="29.34" cy="13.32" r="10"/>
	</defs>
	<clipPath id="SVGID_1_">
		<use xlink:href="#SVGID_3_"  style="overflow:visible;"/>
	</clipPath>
	<g class="st4">
		<path class="st5" d="M22.42,1.52h-2.75c-0.64,0.65-1.11,1.45-1.38,2.34c0.28,0.58,0.5,1.18,0.66,1.8c0.68-0.46,1.42-0.82,2.2-1.05
			c0.55-0.89,1.22-1.67,2-2.34C22.79,2.01,22.68,1.87,22.42,1.52z"/>
		<path class="st5" d="M21.08,4.68c-0.78,0.24-1.52,0.59-2.2,1.05c-0.44,0.92-0.69,1.92-0.75,2.95c0.02,0.65,0.09,1.3,0.2,1.94
			c0.51-0.39,1.11-0.64,1.74-0.73c0.47-1.15,1.07-2.23,1.78-3.23C21.49,5.74,21.34,5.36,21.08,4.68z"/>
		<path class="st6" d="M20.11,9.9c-0.63,0.08-1.22,0.33-1.74,0.73c-0.17,0.95-0.25,1.91-0.22,2.88c-0.03,0.86,0.03,1.73,0.18,2.58
			c0.56,0.15,1.14,0.24,1.71,0.26c0.48-1.24,0.77-1.94,1.38-3.35C20.86,11.66,20.59,11.03,20.11,9.9z"/>
		<path class="st5" d="M20.11,16.34c-0.58-0.02-1.15-0.11-1.71-0.26c-0.14,0.77-0.2,1.56-0.18,2.34c-0.04,0.96,0.09,1.92,0.37,2.83
			c0.56,0.49,1.21,0.85,1.91,1.03c0.3-0.88,0.65-1.73,1.05-2.55C21.02,18.64,20.53,17.5,20.11,16.34z"/>
		<path class="st5" d="M20.5,22.36c-0.7-0.19-1.36-0.54-1.91-1.03c-0.07,0.61-0.19,1.21-0.35,1.8c0.16,1.01,0.52,1.97,1.05,2.81
			c0.79,0.3,1.6,0.55,2.42,0.75c0.26-0.49,0.37-0.75,0.73-1.43C21.72,24.36,21.07,23.38,20.5,22.36z"/>
		<path class="st6" d="M26.04,1.99c-1.02,0.05-2.03,0.23-3.01,0.54c-0.77,0.66-1.44,1.45-1.98,2.34l0.81,1.97
			c1.13-0.32,2.28-0.51,3.45-0.56c0.67-0.91,1.41-1.76,2.2-2.55C27.08,3.1,26.58,2.52,26.04,1.99z"/>
		<path class="st5" d="M25.32,6.11c-1.17,0.06-2.32,0.25-3.45,0.56c-0.7,1.01-1.29,2.1-1.76,3.26c0.46,1.1,0.73,1.73,1.32,3.07
			l3.58-0.14c0.86-1.48,1.3-2.34,2.2-3.68L25.32,6.11z"/>
		<path class="st5" d="M25.01,12.86L21.43,13c-0.64,1.41-0.92,2.11-1.38,3.35c0.43,1.18,0.92,2.33,1.47,3.44
			c1.19,0.2,2.4,0.33,3.6,0.37l2-3.58C26.26,15.1,25.82,14.24,25.01,12.86z"/>
		<path class="st6" d="M25.12,20.16c-1.21-0.05-2.41-0.17-3.6-0.37c-0.4,0.82-0.75,1.68-1.03,2.55c0.57,1.01,1.21,1.97,1.93,2.86
			c1.03,0.38,2.12,0.6,3.21,0.63l1.67-2.34C26.51,22.42,25.78,21.31,25.12,20.16z"/>
		<path class="st5" d="M25.62,25.95c-1.09-0.03-2.18-0.25-3.21-0.63l-0.75,1.45c0.55,0.66,1.28,1.11,2.09,1.29h2.77
			c0.35,0,0.57,0,1.14-0.47C26.92,27.15,26.23,26.6,25.62,25.95z"/>
		<path class="st5" d="M30.72,1.47h-2.79c-0.67-0.07-1.33,0.12-1.89,0.52c0.52,0.47,1,1,1.43,1.57h3.63
			c0.44-0.56,0.92-1.09,1.43-1.57C31.99,1.61,31.36,1.43,30.72,1.47z"/>
		<path class="st5" d="M31.1,3.56h-3.63c-0.79,0.79-1.53,1.65-2.2,2.55c0.66,1.1,1.05,1.69,1.87,3.07c1.67,0,2.57,0,4.26,0
			c0.81-1.38,1.19-1.97,1.85-3.07C32.6,5.2,31.88,4.35,31.1,3.56z"/>
		<path class="st6" d="M31.47,9.18c-1.69,0-2.59,0-4.26,0c-0.88,1.43-1.32,2.2-2.2,3.68c0.79,1.48,1.23,2.34,2.2,3.75h4.4
			c0.86-1.5,1.3-2.34,2.2-3.75C32.79,11.38,32.33,10.61,31.47,9.18z"/>
		<path class="st5" d="M31.51,16.58h-4.4l-2.02,3.56c0.67,1.13,1.41,2.22,2.2,3.26c1.6,0,2.44,0,4.04,0
			c0.79-1.04,1.52-2.13,2.2-3.26C32.79,18.92,32.37,18.1,31.51,16.58z"/>
		<path class="st5" d="M31.36,23.42c-1.6,0-2.44,0-4.04,0l-1.67,2.34c0.6,0.66,1.29,1.22,2.04,1.66h3.41
			c0.75-0.45,1.43-1.01,2.02-1.66L31.36,23.42z"/>
		<path class="st6" d="M35.65,2.53c-0.98-0.3-1.99-0.45-3.01-0.47c-0.51,0.48-0.98,1-1.41,1.57c0.79,0.79,1.53,1.65,2.2,2.55
			c1.16,0.07,2.32,0.26,3.45,0.56c0.4-0.91,0.55-1.29,0.81-1.97C37.13,3.91,36.44,3.15,35.65,2.53z"/>
		<path class="st5" d="M36.81,6.67c-1.15-0.31-2.33-0.5-3.52-0.56l-1.85,3.07c0.86,1.43,1.32,2.2,2.2,3.68L37.23,13
			c0.59-1.33,0.86-1.97,1.32-3.07C38.09,8.78,37.5,7.69,36.81,6.67z"/>
		<path class="st5" d="M37.25,13l-3.58-0.14c-0.81,1.48-1.23,2.34-2.2,3.75c0.86,1.5,1.27,2.34,2,3.56c1.21-0.05,2.41-0.17,3.6-0.37
			c0.55-1.12,1.05-2.26,1.47-3.44C38.15,15.1,37.89,14.4,37.25,13z"/>
		<path class="st6" d="M37.16,19.79c-1.19,0.2-2.4,0.33-3.6,0.37c-0.67,1.13-1.41,2.22-2.2,3.26l1.65,2.34
			c1.09-0.05,2.17-0.26,3.21-0.63c0.71-0.9,1.36-1.85,1.93-2.86C37.88,21.42,37.55,20.59,37.16,19.79z"/>
		<path class="st5" d="M36.26,25.2c-1.04,0.37-2.12,0.59-3.21,0.63c-0.6,0.66-1.29,1.22-2.04,1.66c0.57,0.42,0.79,0.52,1.14,0.47
			h2.77c0.8-0.18,1.52-0.64,2.07-1.29C36.75,26.13,36.61,25.95,36.26,25.2z"/>
		<path class="st5" d="M38.99,1.57h-2.75L35.6,2.53c0.76,0.67,1.43,1.46,1.98,2.34c0.77,0.25,1.51,0.6,2.2,1.05
			c0.15-0.63,0.37-1.23,0.66-1.8C40.18,3.15,39.67,2.27,38.99,1.57z"/>
		<path class="st5" d="M39.73,5.74c-0.69-0.45-1.42-0.81-2.2-1.05c-0.26,0.68-0.42,1.05-0.84,1.99c0.71,1,1.31,2.08,1.78,3.23
			c0.63,0.09,1.24,0.33,1.76,0.73c0.09-0.64,0.15-1.29,0.18-1.94C40.37,7.66,40.14,6.66,39.73,5.74z"/>
		<path class="st6" d="M40.28,10.63c-0.52-0.39-1.13-0.64-1.76-0.73c-0.46,1.12-0.73,1.76-1.32,3.09c0.64,1.41,0.9,2.11,1.38,3.35
			c0.58-0.02,1.15-0.11,1.71-0.26c0.16-0.85,0.22-1.71,0.18-2.58C40.53,12.55,40.46,11.58,40.28,10.63z"/>
		<path class="st5" d="M40.31,16.09c-0.56,0.15-1.14,0.24-1.71,0.26c-0.44,1.18-0.94,2.34-1.49,3.47c0.41,0.82,0.77,1.67,1.05,2.55
			c0.7-0.19,1.36-0.54,1.91-1.03c0.33-0.96,0.47-1.98,0.42-3C40.5,17.58,40.44,16.83,40.31,16.09z"/>
		<path class="st5" d="M40.06,21.26c-0.56,0.49-1.21,0.85-1.91,1.03c-0.57,1.01-1.22,1.96-1.93,2.86l0.73,1.43
			c0.82-0.2,1.63-0.45,2.42-0.75c0.54-0.82,0.9-1.77,1.05-2.76C40.25,22.48,40.14,21.87,40.06,21.26z"/>
	</g>
</g>
<text transform="matrix(1.13 0 0 1 41.8832 22.8311)" class="st0 st1 st7">4</text>
</svg>
