<svg id="Layer_1" data-name="Layer 1" xmlns="http://www.w3.org/2000/svg" xmlns:xlink="http://www.w3.org/1999/xlink" viewBox="0 0 29.68 18.66"><defs><style>.cls-1,.cls-6{fill:none;}.cls-2{fill:#ba8c4f;}.cls-3{fill:#af7f46;}.cls-4{fill:#fff;stroke:#050505;}.cls-4,.cls-6,.cls-7{stroke-miterlimit:10;stroke-width:0.1px;}.cls-5{clip-path:url(#clip-path);}.cls-6,.cls-7{stroke:#000;}.cls-8{fill:#dba153;}.cls-9{fill:#e5b35a;}.cls-10{fill:#ba8743;}.cls-11{fill:#b58a43;}.cls-12{fill:#a06a2a;}</style><clipPath id="clip-path" transform="translate(-0.06 -4.99)"><ellipse id="SVGID" class="cls-1" cx="15.2" cy="13.61" rx="4.55" ry="4.27"/></clipPath></defs><title>morbis-logo</title><polygon class="cls-2" points="24.8 14.91 15.15 11.15 15.15 3.57 24.8 7.33 24.8 14.91"/><polygon class="cls-3" points="5.49 14.91 15.15 11.15 15.15 3.57 5.49 7.33 5.49 14.91"/><ellipse class="cls-4" cx="15.15" cy="8.62" rx="4.55" ry="4.27"/><g class="cls-5"><path class="cls-6" d="M12.05,8.57l-1.25,0a2.42,2.42,0,0,0-.63,1,4.19,4.19,0,0,1,.3.77,3.84,3.84,0,0,1,1-.45,4.43,4.43,0,0,1,.91-1C12.22,8.78,12.17,8.72,12.05,8.57Z" transform="translate(-0.06 -4.99)"/><path class="cls-6" d="M11.44,9.92a3.84,3.84,0,0,0-1,.45,3.16,3.16,0,0,0-.34,1.26,5.63,5.63,0,0,0,.09.83,1.73,1.73,0,0,1,.79-.31,6.65,6.65,0,0,1,.81-1.38C11.63,10.37,11.56,10.21,11.44,9.92Z" transform="translate(-0.06 -4.99)"/><path class="cls-7" d="M11,12.15a1.73,1.73,0,0,0-.79.31,5.49,5.49,0,0,0-.1,1.23,4.94,4.94,0,0,0,.08,1.1,3.81,3.81,0,0,0,.78.11c.22-.53.35-.83.63-1.43C11.34,12.9,11.22,12.63,11,12.15Z" transform="translate(-0.06 -4.99)"/><path class="cls-6" d="M11,14.9a3.81,3.81,0,0,1-.78-.11,4.36,4.36,0,0,0-.08,1A3.38,3.38,0,0,0,10.31,17a2.18,2.18,0,0,0,.87.44,8.76,8.76,0,0,1,.48-1.09A14.7,14.7,0,0,1,11,14.9Z" transform="translate(-0.06 -4.99)"/><path class="cls-6" d="M11.18,17.47a2.18,2.18,0,0,1-.87-.44,5,5,0,0,1-.16.77A3,3,0,0,0,10.63,19a9.85,9.85,0,0,0,1.1.32c.12-.21.17-.32.33-.61A9.53,9.53,0,0,1,11.18,17.47Z" transform="translate(-0.06 -4.99)"/><path class="cls-7" d="M13.7,8.77A5.81,5.81,0,0,0,12.33,9a4.24,4.24,0,0,0-.9,1l.37.84a7.52,7.52,0,0,1,1.57-.24,10,10,0,0,1,1-1.09A5.35,5.35,0,0,0,13.7,8.77Z" transform="translate(-0.06 -4.99)"/><path class="cls-6" d="M13.37,10.53a7.52,7.52,0,0,0-1.57.24,7.15,7.15,0,0,0-.8,1.39c.21.47.33.74.6,1.31l1.63-.06c.39-.63.59-1,1-1.57Z" transform="translate(-0.06 -4.99)"/><path class="cls-6" d="M13.23,13.41l-1.63.06c-.29.6-.42.9-.63,1.43a13.49,13.49,0,0,0,.67,1.47,13.8,13.8,0,0,0,1.64.16L14.19,15C13.8,14.37,13.6,14,13.23,13.41Z" transform="translate(-0.06 -4.99)"/><path class="cls-7" d="M13.28,16.53a13.8,13.8,0,0,1-1.64-.16,8.48,8.48,0,0,0-.47,1.09,8.65,8.65,0,0,0,.88,1.22,4.87,4.87,0,0,0,1.46.27l.76-1A15.2,15.2,0,0,1,13.28,16.53Z" transform="translate(-0.06 -4.99)"/><path class="cls-6" d="M13.51,19a4.87,4.87,0,0,1-1.46-.27l-.34.62a1.74,1.74,0,0,0,.95.55h1.26c.16,0,.26,0,.52-.2A4,4,0,0,1,13.51,19Z" transform="translate(-0.06 -4.99)"/><path class="cls-6" d="M15.83,8.55H14.56a1.32,1.32,0,0,0-.86.22,4.68,4.68,0,0,1,.65.67H16a6.09,6.09,0,0,1,.65-.67A1.32,1.32,0,0,0,15.83,8.55Z" transform="translate(-0.06 -4.99)"/><path class="cls-6" d="M16,9.44H14.35a10,10,0,0,0-1,1.09c.3.47.48.72.85,1.31.76,0,1.17,0,1.94,0,.37-.59.54-.84.84-1.31A9.06,9.06,0,0,0,16,9.44Z" transform="translate(-0.06 -4.99)"/><path class="cls-7" d="M16.17,11.84c-.77,0-1.18,0-1.94,0-.4.61-.6.94-1,1.57.36.63.56,1,1,1.6h2c.39-.64.59-1,1-1.6C16.77,12.78,16.56,12.45,16.17,11.84Z" transform="translate(-0.06 -4.99)"/><path class="cls-6" d="M16.19,15h-2l-.92,1.52a15.2,15.2,0,0,0,1,1.39c.73,0,1.11,0,1.84,0a15.2,15.2,0,0,0,1-1.39C16.77,16,16.58,15.65,16.19,15Z" transform="translate(-0.06 -4.99)"/><path class="cls-6" d="M16.12,17.92c-.73,0-1.11,0-1.84,0l-.76,1a3.83,3.83,0,0,0,.93.71H16a4,4,0,0,0,.92-.71Z" transform="translate(-0.06 -4.99)"/><path class="cls-7" d="M18.07,9a5.32,5.32,0,0,0-1.37-.2,5.35,5.35,0,0,0-.64.67,10,10,0,0,1,1,1.09,8.25,8.25,0,0,1,1.57.24c.18-.39.25-.55.37-.84A4,4,0,0,0,18.07,9Z" transform="translate(-0.06 -4.99)"/><path class="cls-6" d="M18.6,10.77A8.25,8.25,0,0,0,17,10.53l-.84,1.31c.39.61.6.94,1,1.57l1.63.06c.27-.57.39-.84.6-1.31A7.15,7.15,0,0,0,18.6,10.77Z" transform="translate(-0.06 -4.99)"/><path class="cls-6" d="M18.8,13.47l-1.63-.06c-.37.63-.56,1-1,1.6.39.64.58,1,.91,1.52a13.8,13.8,0,0,0,1.64-.16,13.49,13.49,0,0,0,.67-1.47C19.21,14.37,19.09,14.07,18.8,13.47Z" transform="translate(-0.06 -4.99)"/><path class="cls-7" d="M18.76,16.37a13.8,13.8,0,0,1-1.64.16,15.2,15.2,0,0,1-1,1.39l.75,1a5.2,5.2,0,0,0,1.46-.27,9.53,9.53,0,0,0,.88-1.22A8.48,8.48,0,0,0,18.76,16.37Z" transform="translate(-0.06 -4.99)"/><path class="cls-6" d="M18.35,18.68a5.2,5.2,0,0,1-1.46.27,3.83,3.83,0,0,1-.93.71c.26.18.36.22.52.2h1.26a1.75,1.75,0,0,0,.94-.55C18.57,19.08,18.51,19,18.35,18.68Z" transform="translate(-0.06 -4.99)"/><path class="cls-6" d="M19.59,8.59l-1.25,0L18.05,9a4.65,4.65,0,0,1,.9,1,4.11,4.11,0,0,1,1,.45,3.58,3.58,0,0,1,.3-.77A2.44,2.44,0,0,0,19.59,8.59Z" transform="translate(-0.06 -4.99)"/><path class="cls-6" d="M19.93,10.37a4.11,4.11,0,0,0-1-.45c-.12.29-.19.45-.38.85a6.65,6.65,0,0,1,.81,1.38,1.78,1.78,0,0,1,.8.31,7.18,7.18,0,0,0,.08-.83A3.32,3.32,0,0,0,19.93,10.37Z" transform="translate(-0.06 -4.99)"/><path class="cls-7" d="M20.18,12.46a1.78,1.78,0,0,0-.8-.31c-.21.48-.33.75-.6,1.32.29.6.41.9.63,1.43a3.81,3.81,0,0,0,.78-.11,4.41,4.41,0,0,0,.08-1.1A4.92,4.92,0,0,0,20.18,12.46Z" transform="translate(-0.06 -4.99)"/><path class="cls-6" d="M20.19,14.79a3.81,3.81,0,0,1-.78.11,14.7,14.7,0,0,1-.68,1.48,7.47,7.47,0,0,1,.48,1.09,2.18,2.18,0,0,0,.87-.44,3.19,3.19,0,0,0,.19-1.28A4.36,4.36,0,0,0,20.19,14.79Z" transform="translate(-0.06 -4.99)"/><path class="cls-6" d="M20.08,17a2.18,2.18,0,0,1-.87.44,9.53,9.53,0,0,1-.88,1.22l.33.61a9.85,9.85,0,0,0,1.1-.32,2.86,2.86,0,0,0,.48-1.18A5,5,0,0,1,20.08,17Z" transform="translate(-0.06 -4.99)"/></g><polygon class="cls-8" points="15.15 18.66 5.49 14.91 5.49 7.33 15.15 11.09 15.15 18.66"/><polygon class="cls-9" points="15.15 18.66 24.8 14.91 24.8 7.33 15.15 11.09 15.15 18.66"/><line class="cls-1" x1="5.49" y1="7.33" x2="3.44" y2="4.41"/><polygon class="cls-10" points="9.87 12.71 0 8.95 5.49 7.33 15.15 11.09 9.87 12.71"/><polygon class="cls-10" points="15.15 3.58 5.61 7.28 2.32 3.7 11.86 0 15.15 3.58"/><polygon class="cls-11" points="16.37 15.67 26.02 11.86 24.8 7.28 15.15 11.09 16.37 15.67"/><polygon class="cls-12" points="24.73 7.3 15.27 3.61 20.42 2 29.68 5.69 24.73 7.3"/></svg>